<svg width="485" height="589" viewBox="0 0 485 589" fill="none" xmlns="http://www.w3.org/2000/svg">
<path fill-rule="evenodd" clip-rule="evenodd" d="M256.444 153C364.447 153 452 240.553 452 348.556C452 456.558 413.336 576.704 305.333 576.704C224.308 576.704 127.277 509.083 83.8581 429.699C81.6651 429.923 79.4385 430.037 77.1852 430.037C41.1844 430.037 12 400.853 12 364.852C12 332.369 35.759 305.436 66.8469 300.482C88.2661 215.724 165.03 153 256.444 153ZM64.0332 353.074L70.7816 378.259L64.0332 353.074Z" fill="white"/>
<path d="M64.0332 353.074L70.7816 378.259M256.444 153C364.447 153 452 240.553 452 348.556C452 456.558 413.336 576.704 305.333 576.704C224.308 576.704 127.277 509.083 83.8581 429.699C81.6651 429.923 79.4385 430.037 77.1852 430.037C41.1844 430.037 12 400.853 12 364.852C12 332.369 35.759 305.436 66.8469 300.482C88.2661 215.724 165.03 153 256.444 153Z" stroke="black" stroke-width="24" stroke-linecap="round" stroke-linejoin="round"/>
<path d="M335.637 307.849C355.245 341.984 364.288 365.596 362.765 378.684C361.241 391.771 348.999 395.651 326.037 390.322" stroke="black" stroke-width="16" stroke-linecap="round" stroke-linejoin="round"/>
<path fill-rule="evenodd" clip-rule="evenodd" d="M247 426.174C247 426.174 300.778 437.581 326.852 437.581C352.926 437.581 377.37 429.863 377.37 429.863C377.37 429.863 376.556 485.655 319.519 485.655C262.481 485.655 247 426.174 247 426.174Z" stroke="black" stroke-width="16" stroke-linecap="round" stroke-linejoin="round"/>
<path fill-rule="evenodd" clip-rule="evenodd" d="M280.407 242.841C291.208 242.841 299.963 251.596 299.963 262.396C299.963 273.196 291.208 281.952 280.407 281.952C269.607 281.952 260.852 273.196 260.852 262.396C260.852 251.596 269.607 242.841 280.407 242.841ZM392.852 242.841C403.652 242.841 412.407 251.596 412.407 262.396C412.407 273.196 403.652 281.952 392.852 281.952C382.052 281.952 373.296 273.196 373.296 262.396C373.296 251.596 382.052 242.841 392.852 242.841Z" fill="black"/>
<path d="M260.852 242.841C267.37 239.038 273.889 237.137 280.407 237.137C286.926 237.137 293.444 239.038 299.963 242.841" stroke="black" stroke-width="4" stroke-linecap="round" stroke-linejoin="round"/>
<path d="M373.296 242.841C379.815 239.038 386.333 237.137 392.852 237.137C399.37 237.137 405.889 239.038 412.407 242.841" stroke="black" stroke-width="4" stroke-linecap="round" stroke-linejoin="round"/>
<path d="M246.352 237.206C256.966 232.893 266.076 230.165 273.682 229.02C281.287 227.876 290.535 227.843 301.426 228.92" stroke="black" stroke-width="16" stroke-linecap="round" stroke-linejoin="round"/>
<path d="M426.908 237.206C416.293 232.893 407.183 230.165 399.577 229.02C391.972 227.876 382.724 227.843 371.833 228.92" stroke="black" stroke-width="16" stroke-linecap="round" stroke-linejoin="round"/>
<path d="M459.667 209.433H215.222V228.5H459.667V209.433Z" fill="black"/>
<path fill-rule="evenodd" clip-rule="evenodd" d="M319.984 209.433H353.45V250.771C347.872 243.239 342.295 239.473 336.717 239.473C331.139 239.473 325.562 243.239 319.984 250.771V209.433Z" fill="black"/>
<path fill-rule="evenodd" clip-rule="evenodd" d="M221.77 222.851L236.11 284.109C237.491 290.005 242.749 294.174 248.804 294.174H292.474C297.855 294.174 302.683 290.868 304.629 285.851L329.064 222.851H221.77Z" fill="black" stroke="black" stroke-width="16" stroke-linecap="round" stroke-linejoin="round"/>
<path fill-rule="evenodd" clip-rule="evenodd" d="M451.664 222.851L437.323 284.109C435.943 290.005 430.685 294.174 424.63 294.174H380.96C375.579 294.174 370.751 290.868 368.805 285.851L344.37 222.851H451.664Z" fill="black" stroke="black" stroke-width="16" stroke-linecap="round" stroke-linejoin="round"/>
<path fill-rule="evenodd" clip-rule="evenodd" d="M215.222 211.063L54.7037 263.211L51.4445 270.544L215.222 227.359V211.063Z" fill="black" stroke="black" stroke-width="4" stroke-linecap="round" stroke-linejoin="round"/>
<path fill-rule="evenodd" clip-rule="evenodd" d="M226.63 7.35914C291.021 3.26062 326.037 5.72952 397.741 53.8036C445.543 85.8527 472.432 130.396 478.407 187.433L476.158 183.909C466.863 169.403 459.465 158.627 453.963 151.581C448.856 145.042 438.263 137.097 422.184 127.746C421.585 128.556 420.892 129.352 420.108 130.137C435.078 147.449 447.178 163.561 456.407 178.47C466.881 195.392 470.412 213.861 467 233.878C462.654 222.47 457.222 212.421 450.704 203.73C444.185 195.038 434.95 188.248 423 183.359L423.847 184.787C435.183 203.956 442.732 218.831 446.492 229.413L446.63 229.804C450.432 240.667 452.876 260.767 453.963 290.1C446.357 265.655 436.852 243.655 425.444 224.1C414.037 204.544 385.518 183.903 339.889 162.174C340.931 168.131 344.462 174.65 350.481 181.73C356.5 188.81 363.834 196.144 372.481 203.73C353.764 195.671 336.582 187.502 320.936 179.223L319.518 178.47C303.494 169.933 282.889 156.353 257.703 137.73L259.456 139.797C273.376 156.157 284.705 168.233 293.444 176.026C302.548 184.143 312.868 191.205 324.407 197.211C310.644 198.17 296.244 198.203 281.206 197.31L279.593 197.211C263.97 196.218 240.466 193.773 209.079 189.878L210.621 190.569C226.449 197.631 238.97 202.256 248.186 204.441L248.63 204.544C258.179 206.752 272.031 209.469 290.185 212.692C273.124 216.454 257.464 218.871 243.205 219.946L242.111 220.026C227.559 221.057 205.253 219.971 175.19 216.767L178.516 217.871C196.01 223.645 209.603 227.623 219.296 229.804L220.321 230.031C230.535 232.263 244.468 234.36 262.123 236.322L260.401 236.712C237.862 241.794 220.629 244.922 208.704 246.1C196.697 247.285 181.817 247.307 164.063 246.164L163.074 246.1L148.407 307.211L133.157 263.053L132.859 264.785C129.758 282.635 124.088 310.527 115.848 348.465L114.185 356.1L83.3167 282.624H49.9329C27.5687 241.254 19.6528 211.968 26.1852 194.767C29.094 187.106 35.0308 179.757 43.9954 172.72C40.1144 142.197 61.0666 118.583 106.852 101.878C143.775 41.5977 183.701 10.0912 226.63 7.35914Z" fill="black" stroke="black" stroke-width="12" stroke-linecap="round" stroke-linejoin="round"/>
</svg>
