<svg width="492" height="568" viewBox="0 0 492 568" fill="none" xmlns="http://www.w3.org/2000/svg">
<path fill-rule="evenodd" clip-rule="evenodd" d="M235.519 131.815C127.516 131.815 39.963 219.368 39.963 327.37C39.963 435.373 78.6273 555.518 186.63 555.518C267.655 555.518 364.686 487.898 408.105 408.514C410.298 408.737 412.524 408.852 414.778 408.852C450.779 408.852 479.963 379.667 479.963 343.667C479.963 311.184 456.204 284.251 425.116 279.297C403.697 194.539 326.933 131.815 235.519 131.815ZM427.93 331.889L421.181 357.074L427.93 331.889Z" fill="white"/>
<path d="M427.93 331.889L421.181 357.074M235.519 131.815C127.516 131.815 39.963 219.368 39.963 327.37C39.963 435.373 78.6273 555.518 186.63 555.518C267.655 555.518 364.686 487.898 408.105 408.514C410.298 408.737 412.524 408.852 414.778 408.852C450.779 408.852 479.963 379.667 479.963 343.667C479.963 311.184 456.204 284.251 425.116 279.297C403.697 194.539 326.933 131.815 235.519 131.815Z" stroke="black" stroke-width="24" stroke-linecap="round" stroke-linejoin="round"/>
<path d="M149.326 308.453C129.718 342.588 120.675 366.2 122.198 379.287C123.722 392.375 135.964 396.255 158.926 390.926" stroke="black" stroke-width="16" stroke-linecap="round" stroke-linejoin="round"/>
<path fill-rule="evenodd" clip-rule="evenodd" d="M237.963 426.778C237.963 426.778 184.185 438.185 158.111 438.185C132.037 438.185 107.593 430.467 107.593 430.467C107.593 430.467 108.407 486.259 165.444 486.259C222.481 486.259 237.963 426.778 237.963 426.778Z" stroke="black" stroke-width="16" stroke-linecap="round" stroke-linejoin="round"/>
<path fill-rule="evenodd" clip-rule="evenodd" d="M204.556 243.444C193.755 243.444 185 252.2 185 263C185 273.8 193.755 282.556 204.556 282.556C215.356 282.556 224.111 273.8 224.111 263C224.111 252.2 215.356 243.444 204.556 243.444ZM92.1111 243.444C81.3109 243.444 72.5556 252.2 72.5556 263C72.5556 273.8 81.3109 282.556 92.1111 282.556C102.911 282.556 111.667 273.8 111.667 263C111.667 252.2 102.911 243.444 92.1111 243.444Z" fill="black"/>
<path d="M224.111 243.444C217.593 239.642 211.074 237.741 204.556 237.741C198.037 237.741 191.519 239.642 185 243.444" stroke="black" stroke-width="4" stroke-linecap="round" stroke-linejoin="round"/>
<path d="M111.667 243.444C105.148 239.642 98.6296 237.741 92.1111 237.741C85.5926 237.741 79.0741 239.642 72.5555 243.444" stroke="black" stroke-width="4" stroke-linecap="round" stroke-linejoin="round"/>
<path d="M244.482 235.296C233.979 226.605 221.757 222.259 207.815 222.259C193.872 222.259 181.65 226.605 171.148 235.296" stroke="black" stroke-width="20" stroke-linecap="square" stroke-linejoin="round"/>
<path d="M125.519 235.296C115.016 226.605 102.794 222.259 88.8519 222.259C74.9095 222.259 62.6873 226.605 52.1852 235.296" stroke="black" stroke-width="20" stroke-linecap="square" stroke-linejoin="round"/>
<path d="M25.2963 210.037H269.741V229.104H25.2963V210.037Z" fill="black"/>
<path fill-rule="evenodd" clip-rule="evenodd" d="M164.979 210.037H131.513V251.375C137.091 243.843 142.668 240.077 148.246 240.077C153.824 240.077 159.401 243.843 164.979 251.375V210.037Z" fill="black"/>
<path fill-rule="evenodd" clip-rule="evenodd" d="M263.193 223.454L248.853 284.712C247.472 290.608 242.214 294.778 236.159 294.778H192.489C187.108 294.778 182.28 291.472 180.334 286.455L155.899 223.454H263.193Z" fill="black" stroke="black" stroke-width="16" stroke-linecap="round" stroke-linejoin="round"/>
<path fill-rule="evenodd" clip-rule="evenodd" d="M33.2989 223.454L47.6395 284.712C49.0197 290.608 54.278 294.778 60.3333 294.778H104.003C109.384 294.778 114.212 291.472 116.158 286.455L140.593 223.454H33.2989Z" fill="black" stroke="black" stroke-width="16" stroke-linecap="round" stroke-linejoin="round"/>
<path fill-rule="evenodd" clip-rule="evenodd" d="M269.741 211.667L430.259 263.815L433.519 271.148L269.741 227.963V211.667Z" fill="black" stroke="black" stroke-width="4" stroke-linecap="round" stroke-linejoin="round"/>
<path fill-rule="evenodd" clip-rule="evenodd" d="M258.333 7.96296C193.942 3.86445 158.926 6.33334 87.2223 54.4074C39.4203 86.4565 12.5314 131 6.5556 188.037L8.8045 184.513C18.0999 170.007 25.4984 159.231 31 152.185C36.1073 145.646 46.6999 137.701 62.7786 128.349C63.3783 129.159 64.071 129.955 64.8548 130.741C49.885 148.053 37.785 164.165 28.5556 179.074C18.082 195.996 14.5506 214.465 17.963 234.482C22.3092 223.074 27.7408 213.025 34.2593 204.333C40.7778 195.642 50.0129 188.852 61.963 183.963L61.1164 185.391C49.7799 204.56 42.2314 219.435 38.4711 230.017L38.3334 230.407C34.5314 241.271 32.087 261.37 31 290.704C38.6055 266.259 48.1112 244.259 59.5186 224.704C70.926 205.148 99.4445 184.506 145.074 162.778C144.032 168.735 140.501 175.253 134.482 182.333C128.462 189.414 121.129 196.747 112.482 204.333C131.199 196.275 148.381 188.106 164.027 179.827L165.444 179.074C181.469 170.537 202.074 156.957 227.26 138.333L225.507 140.401C211.587 156.76 200.258 168.837 191.519 176.63C182.415 184.747 172.095 191.809 160.556 197.815C174.319 198.774 188.719 198.807 203.757 197.914L205.37 197.815C220.993 196.822 244.497 194.377 275.884 190.482L274.342 191.172C258.514 198.235 245.993 202.859 236.777 205.045L236.333 205.148C226.784 207.356 212.932 210.073 194.778 213.296C211.839 217.058 227.499 219.475 241.758 220.55L242.852 220.63C257.404 221.661 279.71 220.575 309.773 217.37L306.447 218.474C288.953 224.249 275.36 228.227 265.667 230.407L264.642 230.635C254.428 232.867 240.495 234.964 222.84 236.926L224.562 237.315C247.101 242.397 264.334 245.526 276.259 246.704C288.266 247.889 303.146 247.91 320.9 246.768L321.889 246.704L336.556 307.815L351.806 263.657L352.104 265.389C355.205 283.238 360.875 311.131 369.115 349.069L370.778 356.704L401.646 283.228H435.03C457.394 241.858 465.31 212.572 458.778 195.37C455.869 187.71 449.932 180.361 440.968 173.324C444.849 142.801 423.896 119.187 378.111 102.481C341.188 42.2015 301.262 10.695 258.333 7.96296Z" fill="black" stroke="black" stroke-width="12" stroke-linecap="round" stroke-linejoin="round"/>
</svg>
